<svg width="22" height="22" viewBox="0 0 14 16" fill="none" xmlns="http://www.w3.org/2000/svg">
<path d="M11 5H14V13.5C14 14.9062 12.875 16 11.5 16H2.5C1.09375 16 0 14.9062 0 13.5V5H3V4C3 1.8125 4.78125 0 7 0C9.1875 0 11 1.8125 11 4V5ZM5 4V5H9V4C9 2.90625 8.09375 2 7 2C5.875 2 5 2.90625 5 4ZM10 7.75C10.4062 7.75 10.75 7.4375 10.75 7C10.75 6.59375 10.4062 6.25 10 6.25C9.5625 6.25 9.25 6.59375 9.25 7C9.25 7.4375 9.5625 7.75 10 7.75ZM4 7.75C4.40625 7.75 4.75 7.4375 4.75 7C4.75 6.59375 4.40625 6.25 4 6.25C3.5625 6.25 3.25 6.59375 3.25 7C3.25 7.4375 3.5625 7.75 4 7.75Z" fill="white"/>
</svg>
