<svg width="30" height="30" viewBox="0 0 30 30" fill="none" xmlns="http://www.w3.org/2000/svg">
<path d="M0 14.4C0 7.61175 0 4.21766 2.10883 2.10883C4.21766 0 7.61175 0 14.4 0H15.6C22.3882 0 25.7823 0 27.8912 2.10883C30 4.21766 30 7.61175 30 14.4V15.6C30 22.3882 30 25.7823 27.8912 27.8912C25.7823 30 22.3882 30 15.6 30H14.4C7.61175 30 4.21766 30 2.10883 27.8912C0 25.7823 0 22.3882 0 15.6V14.4Z" fill="#DC533C"/>
<path d="M15.9626 21.6126C9.12506 21.6126 5.22512 16.9251 5.06262 9.12506H8.48762C8.60012 14.8501 11.1251 17.2751 13.1251 17.7751V9.12506H16.3502V14.0626C18.3252 13.8501 20.3999 11.6001 21.0999 9.12506H24.325C23.7875 12.1751 21.5375 14.4251 19.9375 15.3501C21.5375 16.1001 24.1001 18.0626 25.0751 21.6126H21.525C20.7625 19.2376 18.8627 17.4001 16.3502 17.1501V21.6126H15.9626Z" fill="white"/>
</svg>
