<svg width="12" height="12" viewBox="0 0 12 12" fill="none" xmlns="http://www.w3.org/2000/svg">
<path d="M0.410742 0.410746C0.736179 0.0853087 1.26382 0.0853087 1.58925 0.410746L6 4.82149L10.4107 0.410746C10.7362 0.0853087 11.2638 0.0853087 11.5893 0.410746C11.9147 0.736183 11.9147 1.26382 11.5893 1.58926L7.17851 6L11.5893 10.4107C11.9147 10.7362 11.9147 11.2638 11.5893 11.5893C11.2638 11.9147 10.7362 11.9147 10.4107 11.5893L6 7.17851L1.58925 11.5893C1.26382 11.9147 0.736179 11.9147 0.410742 11.5893C0.0853049 11.2638 0.0853049 10.7362 0.410742 10.4107L4.82149 6L0.410742 1.58926C0.0853049 1.26382 0.0853049 0.736183 0.410742 0.410746Z" fill="white"/>
</svg>
